<mxfile host="app.diagrams.net" modified="2021-05-19T23:19:20.675Z" agent="5.0 (Macintosh; Intel Mac OS X 10_15_7) AppleWebKit/537.36 (KHTML, like Gecko) Chrome/89.0.4389.114 Safari/537.36" etag="gY1s_1CoBizs5ju0yC_7" version="14.6.11" type="github">
  <diagram id="wS8bfyHIp2vhWJzuONmS" name="Page-1">
    <mxGraphModel dx="1134" dy="176" grid="0" gridSize="10" guides="1" tooltips="1" connect="1" arrows="1" fold="1" page="0" pageScale="1" pageWidth="827" pageHeight="1169" math="0" shadow="0">
      <root>
        <mxCell id="0" />
        <mxCell id="1" parent="0" />
        <mxCell id="hsxcJT8kGqhv8yepH4sB-26" style="edgeStyle=orthogonalEdgeStyle;rounded=0;orthogonalLoop=1;jettySize=auto;html=1;entryX=0;entryY=0.5;entryDx=0;entryDy=0;" edge="1" parent="1" source="hsxcJT8kGqhv8yepH4sB-2" target="hsxcJT8kGqhv8yepH4sB-21">
          <mxGeometry relative="1" as="geometry" />
        </mxCell>
        <mxCell id="hsxcJT8kGqhv8yepH4sB-33" value="(1)" style="edgeLabel;html=1;align=center;verticalAlign=middle;resizable=0;points=[];" vertex="1" connectable="0" parent="hsxcJT8kGqhv8yepH4sB-26">
          <mxGeometry x="-0.3" y="4" relative="1" as="geometry">
            <mxPoint as="offset" />
          </mxGeometry>
        </mxCell>
        <mxCell id="hsxcJT8kGqhv8yepH4sB-2" value="Amazon SQS" style="outlineConnect=0;fontColor=#232F3E;gradientColor=none;strokeColor=#ffffff;fillColor=#232F3E;dashed=0;verticalLabelPosition=middle;verticalAlign=bottom;align=center;html=1;whiteSpace=wrap;fontSize=10;fontStyle=1;spacing=3;shape=mxgraph.aws4.productIcon;prIcon=mxgraph.aws4.sqs;" vertex="1" parent="1">
          <mxGeometry x="380" y="130" width="80" height="100" as="geometry" />
        </mxCell>
        <mxCell id="hsxcJT8kGqhv8yepH4sB-3" value="" style="outlineConnect=0;dashed=0;verticalLabelPosition=bottom;verticalAlign=top;align=center;html=1;shape=mxgraph.aws3.s3;fillColor=#E05243;gradientColor=none;" vertex="1" parent="1">
          <mxGeometry x="-78.25" y="360" width="76.5" height="93" as="geometry" />
        </mxCell>
        <mxCell id="hsxcJT8kGqhv8yepH4sB-52" style="edgeStyle=orthogonalEdgeStyle;rounded=0;orthogonalLoop=1;jettySize=auto;html=1;entryX=0;entryY=0.5;entryDx=0;entryDy=0;" edge="1" parent="1" source="hsxcJT8kGqhv8yepH4sB-5" target="hsxcJT8kGqhv8yepH4sB-39">
          <mxGeometry relative="1" as="geometry">
            <Array as="points">
              <mxPoint x="-135" y="178" />
            </Array>
          </mxGeometry>
        </mxCell>
        <mxCell id="hsxcJT8kGqhv8yepH4sB-5" value="Amazon SQS" style="outlineConnect=0;fontColor=#232F3E;gradientColor=none;strokeColor=#ffffff;fillColor=#232F3E;dashed=0;verticalLabelPosition=middle;verticalAlign=bottom;align=center;html=1;whiteSpace=wrap;fontSize=10;fontStyle=1;spacing=3;shape=mxgraph.aws4.productIcon;prIcon=mxgraph.aws4.sqs;" vertex="1" parent="1">
          <mxGeometry x="-240" y="130" width="80" height="100" as="geometry" />
        </mxCell>
        <mxCell id="hsxcJT8kGqhv8yepH4sB-11" style="edgeStyle=orthogonalEdgeStyle;rounded=0;orthogonalLoop=1;jettySize=auto;html=1;exitX=0.5;exitY=1;exitDx=0;exitDy=0;" edge="1" parent="1" source="hsxcJT8kGqhv8yepH4sB-39" target="hsxcJT8kGqhv8yepH4sB-3">
          <mxGeometry relative="1" as="geometry" />
        </mxCell>
        <mxCell id="hsxcJT8kGqhv8yepH4sB-20" style="edgeStyle=orthogonalEdgeStyle;rounded=0;orthogonalLoop=1;jettySize=auto;html=1;" edge="1" parent="1" source="hsxcJT8kGqhv8yepH4sB-7" target="hsxcJT8kGqhv8yepH4sB-2">
          <mxGeometry relative="1" as="geometry">
            <mxPoint x="370" y="180" as="targetPoint" />
          </mxGeometry>
        </mxCell>
        <mxCell id="hsxcJT8kGqhv8yepH4sB-25" style="edgeStyle=orthogonalEdgeStyle;rounded=0;orthogonalLoop=1;jettySize=auto;html=1;exitX=0.75;exitY=1;exitDx=0;exitDy=0;" edge="1" parent="1" source="hsxcJT8kGqhv8yepH4sB-7" target="hsxcJT8kGqhv8yepH4sB-24">
          <mxGeometry relative="1" as="geometry">
            <Array as="points">
              <mxPoint x="295" y="264" />
              <mxPoint x="370" y="264" />
            </Array>
          </mxGeometry>
        </mxCell>
        <mxCell id="hsxcJT8kGqhv8yepH4sB-7" value="Worker" style="swimlane;" vertex="1" parent="1">
          <mxGeometry x="190" y="132.5" width="140" height="95" as="geometry" />
        </mxCell>
        <mxCell id="hsxcJT8kGqhv8yepH4sB-12" value="create Cache cluster &lt;br&gt;&amp;amp; wait till its booted" style="text;html=1;align=center;verticalAlign=middle;resizable=0;points=[];autosize=1;strokeColor=none;" vertex="1" parent="hsxcJT8kGqhv8yepH4sB-7">
          <mxGeometry x="10" y="47.5" width="130" height="30" as="geometry" />
        </mxCell>
        <mxCell id="hsxcJT8kGqhv8yepH4sB-17" style="edgeStyle=orthogonalEdgeStyle;rounded=0;orthogonalLoop=1;jettySize=auto;html=1;exitX=0.5;exitY=0.5;exitDx=0;exitDy=0;exitPerimeter=0;" edge="1" parent="1" source="hsxcJT8kGqhv8yepH4sB-8" target="hsxcJT8kGqhv8yepH4sB-14">
          <mxGeometry relative="1" as="geometry" />
        </mxCell>
        <mxCell id="hsxcJT8kGqhv8yepH4sB-8" value="Actor" style="shape=umlActor;verticalLabelPosition=bottom;verticalAlign=top;html=1;outlineConnect=0;" vertex="1" parent="1">
          <mxGeometry x="-413" y="150" width="30" height="60" as="geometry" />
        </mxCell>
        <mxCell id="hsxcJT8kGqhv8yepH4sB-10" value="Upload File" style="text;html=1;align=center;verticalAlign=middle;resizable=0;points=[];autosize=1;strokeColor=none;" vertex="1" parent="1">
          <mxGeometry x="-400" y="180" width="80" height="20" as="geometry" />
        </mxCell>
        <mxCell id="hsxcJT8kGqhv8yepH4sB-18" style="edgeStyle=orthogonalEdgeStyle;rounded=0;orthogonalLoop=1;jettySize=auto;html=1;" edge="1" parent="1" source="hsxcJT8kGqhv8yepH4sB-14" target="hsxcJT8kGqhv8yepH4sB-5">
          <mxGeometry relative="1" as="geometry" />
        </mxCell>
        <mxCell id="hsxcJT8kGqhv8yepH4sB-14" value="Api" style="rounded=1;whiteSpace=wrap;html=1;" vertex="1" parent="1">
          <mxGeometry x="-320" y="150" width="50" height="60" as="geometry" />
        </mxCell>
        <mxCell id="hsxcJT8kGqhv8yepH4sB-31" style="edgeStyle=orthogonalEdgeStyle;rounded=0;orthogonalLoop=1;jettySize=auto;html=1;" edge="1" parent="1" source="hsxcJT8kGqhv8yepH4sB-21" target="hsxcJT8kGqhv8yepH4sB-3">
          <mxGeometry relative="1" as="geometry">
            <Array as="points">
              <mxPoint x="590" y="407" />
            </Array>
          </mxGeometry>
        </mxCell>
        <mxCell id="hsxcJT8kGqhv8yepH4sB-58" style="edgeStyle=orthogonalEdgeStyle;rounded=0;orthogonalLoop=1;jettySize=auto;html=1;entryX=1;entryY=0.5;entryDx=0;entryDy=0;entryPerimeter=0;" edge="1" parent="1" source="hsxcJT8kGqhv8yepH4sB-21" target="hsxcJT8kGqhv8yepH4sB-56">
          <mxGeometry relative="1" as="geometry">
            <Array as="points">
              <mxPoint x="590" y="40" />
            </Array>
          </mxGeometry>
        </mxCell>
        <mxCell id="hsxcJT8kGqhv8yepH4sB-129" style="edgeStyle=orthogonalEdgeStyle;rounded=0;orthogonalLoop=1;jettySize=auto;html=1;exitX=0.25;exitY=1;exitDx=0;exitDy=0;" edge="1" parent="1" source="hsxcJT8kGqhv8yepH4sB-21" target="hsxcJT8kGqhv8yepH4sB-24">
          <mxGeometry relative="1" as="geometry" />
        </mxCell>
        <mxCell id="hsxcJT8kGqhv8yepH4sB-21" value="Heavy Worker (Ruby)" style="swimlane;" vertex="1" parent="1">
          <mxGeometry x="520" y="140" width="140" height="80" as="geometry" />
        </mxCell>
        <mxCell id="hsxcJT8kGqhv8yepH4sB-22" value="Excel Loader" style="text;html=1;align=center;verticalAlign=middle;resizable=0;points=[];autosize=1;strokeColor=none;" vertex="1" parent="hsxcJT8kGqhv8yepH4sB-21">
          <mxGeometry x="30" y="35" width="90" height="20" as="geometry" />
        </mxCell>
        <mxCell id="hsxcJT8kGqhv8yepH4sB-24" value="" style="outlineConnect=0;fontColor=#232F3E;gradientColor=none;fillColor=#3334B9;strokeColor=none;dashed=0;verticalLabelPosition=bottom;verticalAlign=top;align=center;html=1;fontSize=12;fontStyle=0;aspect=fixed;pointerEvents=1;shape=mxgraph.aws4.elasticache_for_redis;" vertex="1" parent="1">
          <mxGeometry x="360" y="300" width="78" height="69" as="geometry" />
        </mxCell>
        <mxCell id="hsxcJT8kGqhv8yepH4sB-32" value="(2) load in memory from s3" style="text;html=1;align=center;verticalAlign=middle;resizable=0;points=[];autosize=1;strokeColor=none;" vertex="1" parent="1">
          <mxGeometry x="550" y="310" width="160" height="20" as="geometry" />
        </mxCell>
        <mxCell id="hsxcJT8kGqhv8yepH4sB-34" value="(3) write to redis" style="text;html=1;align=center;verticalAlign=middle;resizable=0;points=[];autosize=1;strokeColor=none;" vertex="1" parent="1">
          <mxGeometry x="440" y="240" width="100" height="20" as="geometry" />
        </mxCell>
        <mxCell id="hsxcJT8kGqhv8yepH4sB-46" style="edgeStyle=orthogonalEdgeStyle;rounded=0;orthogonalLoop=1;jettySize=auto;html=1;entryX=-0.029;entryY=0.5;entryDx=0;entryDy=0;entryPerimeter=0;" edge="1" parent="1" source="hsxcJT8kGqhv8yepH4sB-39">
          <mxGeometry relative="1" as="geometry">
            <mxPoint x="187.9699999999998" y="30" as="targetPoint" />
            <Array as="points">
              <mxPoint x="-40" y="30" />
            </Array>
          </mxGeometry>
        </mxCell>
        <mxCell id="hsxcJT8kGqhv8yepH4sB-39" value="Worker" style="swimlane;" vertex="1" parent="1">
          <mxGeometry x="-110" y="130" width="140" height="95" as="geometry" />
        </mxCell>
        <mxCell id="hsxcJT8kGqhv8yepH4sB-40" value="Copy to Standard file&lt;br&gt;" style="text;html=1;align=center;verticalAlign=middle;resizable=0;points=[];autosize=1;strokeColor=none;" vertex="1" parent="hsxcJT8kGqhv8yepH4sB-39">
          <mxGeometry x="10" y="45" width="130" height="20" as="geometry" />
        </mxCell>
        <mxCell id="hsxcJT8kGqhv8yepH4sB-42" value="Create Cluster" style="text;html=1;align=center;verticalAlign=middle;resizable=0;points=[];autosize=1;strokeColor=none;" vertex="1" parent="1">
          <mxGeometry x="260" y="240" width="90" height="20" as="geometry" />
        </mxCell>
        <mxCell id="hsxcJT8kGqhv8yepH4sB-55" style="edgeStyle=orthogonalEdgeStyle;rounded=0;orthogonalLoop=1;jettySize=auto;html=1;" edge="1" parent="1" source="hsxcJT8kGqhv8yepH4sB-43">
          <mxGeometry relative="1" as="geometry">
            <mxPoint x="190" y="185" as="targetPoint" />
          </mxGeometry>
        </mxCell>
        <mxCell id="hsxcJT8kGqhv8yepH4sB-43" value="Amazon SQS" style="outlineConnect=0;fontColor=#232F3E;gradientColor=none;strokeColor=#ffffff;fillColor=#232F3E;dashed=0;verticalLabelPosition=middle;verticalAlign=bottom;align=center;html=1;whiteSpace=wrap;fontSize=10;fontStyle=1;spacing=3;shape=mxgraph.aws4.productIcon;prIcon=mxgraph.aws4.sqs;" vertex="1" parent="1">
          <mxGeometry x="75" y="135" width="80" height="100" as="geometry" />
        </mxCell>
        <mxCell id="hsxcJT8kGqhv8yepH4sB-53" style="edgeStyle=orthogonalEdgeStyle;rounded=0;orthogonalLoop=1;jettySize=auto;html=1;" edge="1" parent="1" source="hsxcJT8kGqhv8yepH4sB-40" target="hsxcJT8kGqhv8yepH4sB-43">
          <mxGeometry relative="1" as="geometry" />
        </mxCell>
        <mxCell id="hsxcJT8kGqhv8yepH4sB-56" value="Mongo" style="shape=cylinder3;whiteSpace=wrap;html=1;boundedLbl=1;backgroundOutline=1;size=15;" vertex="1" parent="1">
          <mxGeometry x="200" width="60" height="80" as="geometry" />
        </mxCell>
        <mxCell id="hsxcJT8kGqhv8yepH4sB-57" value="copy 10 rows, update status" style="text;html=1;align=center;verticalAlign=middle;resizable=0;points=[];autosize=1;strokeColor=none;" vertex="1" parent="1">
          <mxGeometry x="-20" y="30" width="160" height="20" as="geometry" />
        </mxCell>
        <mxCell id="hsxcJT8kGqhv8yepH4sB-59" value="update status of file" style="text;html=1;align=center;verticalAlign=middle;resizable=0;points=[];autosize=1;strokeColor=none;" vertex="1" parent="1">
          <mxGeometry x="390" y="10" width="120" height="20" as="geometry" />
        </mxCell>
        <mxCell id="hsxcJT8kGqhv8yepH4sB-171" style="edgeStyle=orthogonalEdgeStyle;rounded=0;orthogonalLoop=1;jettySize=auto;html=1;" edge="1" parent="1" source="hsxcJT8kGqhv8yepH4sB-173" target="hsxcJT8kGqhv8yepH4sB-203">
          <mxGeometry relative="1" as="geometry">
            <mxPoint x="545" y="1280" as="targetPoint" />
          </mxGeometry>
        </mxCell>
        <mxCell id="hsxcJT8kGqhv8yepH4sB-172" value="(1)" style="edgeLabel;html=1;align=center;verticalAlign=middle;resizable=0;points=[];" vertex="1" connectable="0" parent="hsxcJT8kGqhv8yepH4sB-171">
          <mxGeometry x="-0.3" y="4" relative="1" as="geometry">
            <mxPoint as="offset" />
          </mxGeometry>
        </mxCell>
        <mxCell id="hsxcJT8kGqhv8yepH4sB-173" value="Amazon SQS" style="outlineConnect=0;fontColor=#232F3E;gradientColor=none;strokeColor=#ffffff;fillColor=#232F3E;dashed=0;verticalLabelPosition=middle;verticalAlign=bottom;align=center;html=1;whiteSpace=wrap;fontSize=10;fontStyle=1;spacing=3;shape=mxgraph.aws4.productIcon;prIcon=mxgraph.aws4.sqs;" vertex="1" parent="1">
          <mxGeometry x="373" y="1230" width="80" height="100" as="geometry" />
        </mxCell>
        <mxCell id="hsxcJT8kGqhv8yepH4sB-174" value="" style="outlineConnect=0;dashed=0;verticalLabelPosition=bottom;verticalAlign=top;align=center;html=1;shape=mxgraph.aws3.s3;fillColor=#E05243;gradientColor=none;" vertex="1" parent="1">
          <mxGeometry x="-85.25" y="1460" width="76.5" height="93" as="geometry" />
        </mxCell>
        <mxCell id="hsxcJT8kGqhv8yepH4sB-175" style="edgeStyle=orthogonalEdgeStyle;rounded=0;orthogonalLoop=1;jettySize=auto;html=1;entryX=0;entryY=0.5;entryDx=0;entryDy=0;" edge="1" parent="1" source="hsxcJT8kGqhv8yepH4sB-176" target="hsxcJT8kGqhv8yepH4sB-194">
          <mxGeometry relative="1" as="geometry">
            <Array as="points">
              <mxPoint x="-142" y="1278" />
            </Array>
          </mxGeometry>
        </mxCell>
        <mxCell id="hsxcJT8kGqhv8yepH4sB-176" value="Amazon SQS" style="outlineConnect=0;fontColor=#232F3E;gradientColor=none;strokeColor=#ffffff;fillColor=#232F3E;dashed=0;verticalLabelPosition=middle;verticalAlign=bottom;align=center;html=1;whiteSpace=wrap;fontSize=10;fontStyle=1;spacing=3;shape=mxgraph.aws4.productIcon;prIcon=mxgraph.aws4.sqs;" vertex="1" parent="1">
          <mxGeometry x="-247" y="1230" width="80" height="100" as="geometry" />
        </mxCell>
        <mxCell id="hsxcJT8kGqhv8yepH4sB-177" style="edgeStyle=orthogonalEdgeStyle;rounded=0;orthogonalLoop=1;jettySize=auto;html=1;exitX=0.5;exitY=1;exitDx=0;exitDy=0;" edge="1" parent="1" source="hsxcJT8kGqhv8yepH4sB-194" target="hsxcJT8kGqhv8yepH4sB-174">
          <mxGeometry relative="1" as="geometry" />
        </mxCell>
        <mxCell id="hsxcJT8kGqhv8yepH4sB-178" style="edgeStyle=orthogonalEdgeStyle;rounded=0;orthogonalLoop=1;jettySize=auto;html=1;" edge="1" parent="1" source="hsxcJT8kGqhv8yepH4sB-180" target="hsxcJT8kGqhv8yepH4sB-173">
          <mxGeometry relative="1" as="geometry">
            <mxPoint x="363" y="1280" as="targetPoint" />
          </mxGeometry>
        </mxCell>
        <mxCell id="hsxcJT8kGqhv8yepH4sB-179" style="edgeStyle=orthogonalEdgeStyle;rounded=0;orthogonalLoop=1;jettySize=auto;html=1;exitX=0.75;exitY=1;exitDx=0;exitDy=0;" edge="1" parent="1" source="hsxcJT8kGqhv8yepH4sB-180" target="hsxcJT8kGqhv8yepH4sB-190">
          <mxGeometry relative="1" as="geometry">
            <Array as="points">
              <mxPoint x="288" y="1364" />
              <mxPoint x="363" y="1364" />
            </Array>
          </mxGeometry>
        </mxCell>
        <mxCell id="hsxcJT8kGqhv8yepH4sB-180" value="Worker" style="swimlane;" vertex="1" parent="1">
          <mxGeometry x="183" y="1232.5" width="140" height="95" as="geometry" />
        </mxCell>
        <mxCell id="hsxcJT8kGqhv8yepH4sB-181" value="create Cache cluster &lt;br&gt;&amp;amp; wait till its booted" style="text;html=1;align=center;verticalAlign=middle;resizable=0;points=[];autosize=1;strokeColor=none;" vertex="1" parent="hsxcJT8kGqhv8yepH4sB-180">
          <mxGeometry x="10" y="47.5" width="130" height="30" as="geometry" />
        </mxCell>
        <mxCell id="hsxcJT8kGqhv8yepH4sB-182" style="edgeStyle=orthogonalEdgeStyle;rounded=0;orthogonalLoop=1;jettySize=auto;html=1;exitX=0.5;exitY=0.5;exitDx=0;exitDy=0;exitPerimeter=0;" edge="1" parent="1" source="hsxcJT8kGqhv8yepH4sB-183" target="hsxcJT8kGqhv8yepH4sB-186">
          <mxGeometry relative="1" as="geometry" />
        </mxCell>
        <mxCell id="hsxcJT8kGqhv8yepH4sB-183" value="Actor" style="shape=umlActor;verticalLabelPosition=bottom;verticalAlign=top;html=1;outlineConnect=0;" vertex="1" parent="1">
          <mxGeometry x="-420" y="1250" width="30" height="60" as="geometry" />
        </mxCell>
        <mxCell id="hsxcJT8kGqhv8yepH4sB-184" value="Upload File" style="text;html=1;align=center;verticalAlign=middle;resizable=0;points=[];autosize=1;strokeColor=none;" vertex="1" parent="1">
          <mxGeometry x="-407" y="1280" width="80" height="20" as="geometry" />
        </mxCell>
        <mxCell id="hsxcJT8kGqhv8yepH4sB-185" style="edgeStyle=orthogonalEdgeStyle;rounded=0;orthogonalLoop=1;jettySize=auto;html=1;" edge="1" parent="1" source="hsxcJT8kGqhv8yepH4sB-186" target="hsxcJT8kGqhv8yepH4sB-176">
          <mxGeometry relative="1" as="geometry" />
        </mxCell>
        <mxCell id="hsxcJT8kGqhv8yepH4sB-186" value="Api" style="rounded=1;whiteSpace=wrap;html=1;" vertex="1" parent="1">
          <mxGeometry x="-327" y="1250" width="50" height="60" as="geometry" />
        </mxCell>
        <mxCell id="hsxcJT8kGqhv8yepH4sB-187" style="edgeStyle=orthogonalEdgeStyle;rounded=0;orthogonalLoop=1;jettySize=auto;html=1;" edge="1" parent="1" target="hsxcJT8kGqhv8yepH4sB-174">
          <mxGeometry relative="1" as="geometry">
            <Array as="points">
              <mxPoint x="583" y="1507" />
            </Array>
            <mxPoint x="583" y="1320" as="sourcePoint" />
          </mxGeometry>
        </mxCell>
        <mxCell id="hsxcJT8kGqhv8yepH4sB-188" style="edgeStyle=orthogonalEdgeStyle;rounded=0;orthogonalLoop=1;jettySize=auto;html=1;entryX=1;entryY=0.5;entryDx=0;entryDy=0;entryPerimeter=0;" edge="1" parent="1" source="hsxcJT8kGqhv8yepH4sB-203" target="hsxcJT8kGqhv8yepH4sB-200">
          <mxGeometry relative="1" as="geometry">
            <Array as="points">
              <mxPoint x="583" y="1140" />
            </Array>
            <mxPoint x="593" y="1205" as="sourcePoint" />
          </mxGeometry>
        </mxCell>
        <mxCell id="hsxcJT8kGqhv8yepH4sB-189" style="edgeStyle=orthogonalEdgeStyle;rounded=0;orthogonalLoop=1;jettySize=auto;html=1;" edge="1" parent="1" source="hsxcJT8kGqhv8yepH4sB-203" target="hsxcJT8kGqhv8yepH4sB-190">
          <mxGeometry relative="1" as="geometry">
            <mxPoint x="548" y="1320" as="sourcePoint" />
            <Array as="points">
              <mxPoint x="563" y="1365" />
              <mxPoint x="392" y="1365" />
            </Array>
          </mxGeometry>
        </mxCell>
        <mxCell id="hsxcJT8kGqhv8yepH4sB-190" value="" style="outlineConnect=0;fontColor=#232F3E;gradientColor=none;fillColor=#3334B9;strokeColor=none;dashed=0;verticalLabelPosition=bottom;verticalAlign=top;align=center;html=1;fontSize=12;fontStyle=0;aspect=fixed;pointerEvents=1;shape=mxgraph.aws4.elasticache_for_redis;" vertex="1" parent="1">
          <mxGeometry x="353" y="1400" width="78" height="69" as="geometry" />
        </mxCell>
        <mxCell id="hsxcJT8kGqhv8yepH4sB-191" value="(2) load in memory from s3" style="text;html=1;align=center;verticalAlign=middle;resizable=0;points=[];autosize=1;strokeColor=none;" vertex="1" parent="1">
          <mxGeometry x="543" y="1410" width="160" height="20" as="geometry" />
        </mxCell>
        <mxCell id="hsxcJT8kGqhv8yepH4sB-192" value="(3) write to redis" style="text;html=1;align=center;verticalAlign=middle;resizable=0;points=[];autosize=1;strokeColor=none;" vertex="1" parent="1">
          <mxGeometry x="433" y="1340" width="100" height="20" as="geometry" />
        </mxCell>
        <mxCell id="hsxcJT8kGqhv8yepH4sB-193" style="edgeStyle=orthogonalEdgeStyle;rounded=0;orthogonalLoop=1;jettySize=auto;html=1;entryX=-0.029;entryY=0.5;entryDx=0;entryDy=0;entryPerimeter=0;" edge="1" parent="1" source="hsxcJT8kGqhv8yepH4sB-194">
          <mxGeometry relative="1" as="geometry">
            <mxPoint x="180.9699999999998" y="1130" as="targetPoint" />
            <Array as="points">
              <mxPoint x="-47" y="1130" />
            </Array>
          </mxGeometry>
        </mxCell>
        <mxCell id="hsxcJT8kGqhv8yepH4sB-194" value="Worker" style="swimlane;" vertex="1" parent="1">
          <mxGeometry x="-117" y="1230" width="140" height="95" as="geometry" />
        </mxCell>
        <mxCell id="hsxcJT8kGqhv8yepH4sB-195" value="Copy to Standard file&lt;br&gt;" style="text;html=1;align=center;verticalAlign=middle;resizable=0;points=[];autosize=1;strokeColor=none;" vertex="1" parent="hsxcJT8kGqhv8yepH4sB-194">
          <mxGeometry x="10" y="45" width="130" height="20" as="geometry" />
        </mxCell>
        <mxCell id="hsxcJT8kGqhv8yepH4sB-196" value="Create Cluster" style="text;html=1;align=center;verticalAlign=middle;resizable=0;points=[];autosize=1;strokeColor=none;" vertex="1" parent="1">
          <mxGeometry x="253" y="1340" width="90" height="20" as="geometry" />
        </mxCell>
        <mxCell id="hsxcJT8kGqhv8yepH4sB-197" style="edgeStyle=orthogonalEdgeStyle;rounded=0;orthogonalLoop=1;jettySize=auto;html=1;" edge="1" parent="1" source="hsxcJT8kGqhv8yepH4sB-198">
          <mxGeometry relative="1" as="geometry">
            <mxPoint x="183" y="1285" as="targetPoint" />
          </mxGeometry>
        </mxCell>
        <mxCell id="hsxcJT8kGqhv8yepH4sB-198" value="Amazon SQS" style="outlineConnect=0;fontColor=#232F3E;gradientColor=none;strokeColor=#ffffff;fillColor=#232F3E;dashed=0;verticalLabelPosition=middle;verticalAlign=bottom;align=center;html=1;whiteSpace=wrap;fontSize=10;fontStyle=1;spacing=3;shape=mxgraph.aws4.productIcon;prIcon=mxgraph.aws4.sqs;" vertex="1" parent="1">
          <mxGeometry x="68" y="1235" width="80" height="100" as="geometry" />
        </mxCell>
        <mxCell id="hsxcJT8kGqhv8yepH4sB-199" style="edgeStyle=orthogonalEdgeStyle;rounded=0;orthogonalLoop=1;jettySize=auto;html=1;" edge="1" parent="1" source="hsxcJT8kGqhv8yepH4sB-195" target="hsxcJT8kGqhv8yepH4sB-198">
          <mxGeometry relative="1" as="geometry" />
        </mxCell>
        <mxCell id="hsxcJT8kGqhv8yepH4sB-200" value="Mongo" style="shape=cylinder3;whiteSpace=wrap;html=1;boundedLbl=1;backgroundOutline=1;size=15;" vertex="1" parent="1">
          <mxGeometry x="193" y="1100" width="60" height="80" as="geometry" />
        </mxCell>
        <mxCell id="hsxcJT8kGqhv8yepH4sB-201" value="copy 10 rows, update status" style="text;html=1;align=center;verticalAlign=middle;resizable=0;points=[];autosize=1;strokeColor=none;" vertex="1" parent="1">
          <mxGeometry x="-27" y="1130" width="160" height="20" as="geometry" />
        </mxCell>
        <mxCell id="hsxcJT8kGqhv8yepH4sB-202" value="(4) update status of file" style="text;html=1;align=center;verticalAlign=middle;resizable=0;points=[];autosize=1;strokeColor=none;" vertex="1" parent="1">
          <mxGeometry x="373" y="1110" width="140" height="20" as="geometry" />
        </mxCell>
        <mxCell id="hsxcJT8kGqhv8yepH4sB-203" value="Java" style="outlineConnect=0;fontColor=#232F3E;gradientColor=none;fillColor=#D05C17;strokeColor=none;dashed=0;verticalLabelPosition=bottom;verticalAlign=top;align=center;html=1;fontSize=12;fontStyle=0;aspect=fixed;pointerEvents=1;shape=mxgraph.aws4.lambda_function;" vertex="1" parent="1">
          <mxGeometry x="543" y="1241" width="78" height="78" as="geometry" />
        </mxCell>
        <mxCell id="hsxcJT8kGqhv8yepH4sB-204" style="edgeStyle=orthogonalEdgeStyle;rounded=0;orthogonalLoop=1;jettySize=auto;html=1;entryX=0;entryY=0.5;entryDx=0;entryDy=0;" edge="1" parent="1" source="hsxcJT8kGqhv8yepH4sB-206" target="hsxcJT8kGqhv8yepH4sB-223">
          <mxGeometry relative="1" as="geometry" />
        </mxCell>
        <mxCell id="hsxcJT8kGqhv8yepH4sB-205" value="(1)" style="edgeLabel;html=1;align=center;verticalAlign=middle;resizable=0;points=[];" vertex="1" connectable="0" parent="hsxcJT8kGqhv8yepH4sB-204">
          <mxGeometry x="-0.3" y="4" relative="1" as="geometry">
            <mxPoint as="offset" />
          </mxGeometry>
        </mxCell>
        <mxCell id="hsxcJT8kGqhv8yepH4sB-206" value="Amazon SQS" style="outlineConnect=0;fontColor=#232F3E;gradientColor=none;strokeColor=#ffffff;fillColor=#232F3E;dashed=0;verticalLabelPosition=middle;verticalAlign=bottom;align=center;html=1;whiteSpace=wrap;fontSize=10;fontStyle=1;spacing=3;shape=mxgraph.aws4.productIcon;prIcon=mxgraph.aws4.sqs;" vertex="1" parent="1">
          <mxGeometry x="393" y="690" width="80" height="100" as="geometry" />
        </mxCell>
        <mxCell id="hsxcJT8kGqhv8yepH4sB-207" value="" style="outlineConnect=0;dashed=0;verticalLabelPosition=bottom;verticalAlign=top;align=center;html=1;shape=mxgraph.aws3.s3;fillColor=#E05243;gradientColor=none;" vertex="1" parent="1">
          <mxGeometry x="-65.25" y="920" width="76.5" height="93" as="geometry" />
        </mxCell>
        <mxCell id="hsxcJT8kGqhv8yepH4sB-208" style="edgeStyle=orthogonalEdgeStyle;rounded=0;orthogonalLoop=1;jettySize=auto;html=1;entryX=0;entryY=0.5;entryDx=0;entryDy=0;" edge="1" parent="1" source="hsxcJT8kGqhv8yepH4sB-209" target="hsxcJT8kGqhv8yepH4sB-229">
          <mxGeometry relative="1" as="geometry">
            <Array as="points">
              <mxPoint x="-122" y="738" />
            </Array>
          </mxGeometry>
        </mxCell>
        <mxCell id="hsxcJT8kGqhv8yepH4sB-209" value="Amazon SQS" style="outlineConnect=0;fontColor=#232F3E;gradientColor=none;strokeColor=#ffffff;fillColor=#232F3E;dashed=0;verticalLabelPosition=middle;verticalAlign=bottom;align=center;html=1;whiteSpace=wrap;fontSize=10;fontStyle=1;spacing=3;shape=mxgraph.aws4.productIcon;prIcon=mxgraph.aws4.sqs;" vertex="1" parent="1">
          <mxGeometry x="-227" y="690" width="80" height="100" as="geometry" />
        </mxCell>
        <mxCell id="hsxcJT8kGqhv8yepH4sB-210" style="edgeStyle=orthogonalEdgeStyle;rounded=0;orthogonalLoop=1;jettySize=auto;html=1;exitX=0.5;exitY=1;exitDx=0;exitDy=0;" edge="1" parent="1" source="hsxcJT8kGqhv8yepH4sB-229" target="hsxcJT8kGqhv8yepH4sB-207">
          <mxGeometry relative="1" as="geometry" />
        </mxCell>
        <mxCell id="hsxcJT8kGqhv8yepH4sB-211" style="edgeStyle=orthogonalEdgeStyle;rounded=0;orthogonalLoop=1;jettySize=auto;html=1;" edge="1" parent="1" source="hsxcJT8kGqhv8yepH4sB-213" target="hsxcJT8kGqhv8yepH4sB-206">
          <mxGeometry relative="1" as="geometry">
            <mxPoint x="383" y="740" as="targetPoint" />
          </mxGeometry>
        </mxCell>
        <mxCell id="hsxcJT8kGqhv8yepH4sB-212" style="edgeStyle=orthogonalEdgeStyle;rounded=0;orthogonalLoop=1;jettySize=auto;html=1;exitX=0.75;exitY=1;exitDx=0;exitDy=0;" edge="1" parent="1" source="hsxcJT8kGqhv8yepH4sB-213" target="hsxcJT8kGqhv8yepH4sB-225">
          <mxGeometry relative="1" as="geometry">
            <Array as="points">
              <mxPoint x="308" y="824" />
              <mxPoint x="383" y="824" />
            </Array>
          </mxGeometry>
        </mxCell>
        <mxCell id="hsxcJT8kGqhv8yepH4sB-213" value="Worker" style="swimlane;" vertex="1" parent="1">
          <mxGeometry x="203" y="692.5" width="140" height="95" as="geometry" />
        </mxCell>
        <mxCell id="hsxcJT8kGqhv8yepH4sB-214" value="create Cache cluster &lt;br&gt;&amp;amp; wait till its booted" style="text;html=1;align=center;verticalAlign=middle;resizable=0;points=[];autosize=1;strokeColor=none;" vertex="1" parent="hsxcJT8kGqhv8yepH4sB-213">
          <mxGeometry x="10" y="47.5" width="130" height="30" as="geometry" />
        </mxCell>
        <mxCell id="hsxcJT8kGqhv8yepH4sB-215" style="edgeStyle=orthogonalEdgeStyle;rounded=0;orthogonalLoop=1;jettySize=auto;html=1;exitX=0.5;exitY=0.5;exitDx=0;exitDy=0;exitPerimeter=0;" edge="1" parent="1" source="hsxcJT8kGqhv8yepH4sB-216" target="hsxcJT8kGqhv8yepH4sB-219">
          <mxGeometry relative="1" as="geometry" />
        </mxCell>
        <mxCell id="hsxcJT8kGqhv8yepH4sB-216" value="Actor" style="shape=umlActor;verticalLabelPosition=bottom;verticalAlign=top;html=1;outlineConnect=0;" vertex="1" parent="1">
          <mxGeometry x="-400" y="710" width="30" height="60" as="geometry" />
        </mxCell>
        <mxCell id="hsxcJT8kGqhv8yepH4sB-217" value="Upload File" style="text;html=1;align=center;verticalAlign=middle;resizable=0;points=[];autosize=1;strokeColor=none;" vertex="1" parent="1">
          <mxGeometry x="-387" y="740" width="80" height="20" as="geometry" />
        </mxCell>
        <mxCell id="hsxcJT8kGqhv8yepH4sB-218" style="edgeStyle=orthogonalEdgeStyle;rounded=0;orthogonalLoop=1;jettySize=auto;html=1;" edge="1" parent="1" source="hsxcJT8kGqhv8yepH4sB-219" target="hsxcJT8kGqhv8yepH4sB-209">
          <mxGeometry relative="1" as="geometry" />
        </mxCell>
        <mxCell id="hsxcJT8kGqhv8yepH4sB-219" value="Api" style="rounded=1;whiteSpace=wrap;html=1;" vertex="1" parent="1">
          <mxGeometry x="-307" y="710" width="50" height="60" as="geometry" />
        </mxCell>
        <mxCell id="hsxcJT8kGqhv8yepH4sB-220" style="edgeStyle=orthogonalEdgeStyle;rounded=0;orthogonalLoop=1;jettySize=auto;html=1;" edge="1" parent="1" source="hsxcJT8kGqhv8yepH4sB-223" target="hsxcJT8kGqhv8yepH4sB-207">
          <mxGeometry relative="1" as="geometry">
            <Array as="points">
              <mxPoint x="603" y="967" />
            </Array>
          </mxGeometry>
        </mxCell>
        <mxCell id="hsxcJT8kGqhv8yepH4sB-221" style="edgeStyle=orthogonalEdgeStyle;rounded=0;orthogonalLoop=1;jettySize=auto;html=1;entryX=1;entryY=0.5;entryDx=0;entryDy=0;entryPerimeter=0;" edge="1" parent="1" source="hsxcJT8kGqhv8yepH4sB-223" target="hsxcJT8kGqhv8yepH4sB-235">
          <mxGeometry relative="1" as="geometry">
            <Array as="points">
              <mxPoint x="603" y="600" />
            </Array>
          </mxGeometry>
        </mxCell>
        <mxCell id="hsxcJT8kGqhv8yepH4sB-222" style="edgeStyle=orthogonalEdgeStyle;rounded=0;orthogonalLoop=1;jettySize=auto;html=1;exitX=0.25;exitY=1;exitDx=0;exitDy=0;" edge="1" parent="1" source="hsxcJT8kGqhv8yepH4sB-223" target="hsxcJT8kGqhv8yepH4sB-225">
          <mxGeometry relative="1" as="geometry" />
        </mxCell>
        <mxCell id="hsxcJT8kGqhv8yepH4sB-223" value="Heavy Worker (Ruby)" style="swimlane;" vertex="1" parent="1">
          <mxGeometry x="533" y="700" width="140" height="80" as="geometry" />
        </mxCell>
        <mxCell id="hsxcJT8kGqhv8yepH4sB-224" value="Excel Loader" style="text;html=1;align=center;verticalAlign=middle;resizable=0;points=[];autosize=1;strokeColor=none;" vertex="1" parent="hsxcJT8kGqhv8yepH4sB-223">
          <mxGeometry x="30" y="35" width="90" height="20" as="geometry" />
        </mxCell>
        <mxCell id="hsxcJT8kGqhv8yepH4sB-225" value="" style="outlineConnect=0;fontColor=#232F3E;gradientColor=none;fillColor=#3334B9;strokeColor=none;dashed=0;verticalLabelPosition=bottom;verticalAlign=top;align=center;html=1;fontSize=12;fontStyle=0;aspect=fixed;pointerEvents=1;shape=mxgraph.aws4.elasticache_for_redis;" vertex="1" parent="1">
          <mxGeometry x="373" y="860" width="78" height="69" as="geometry" />
        </mxCell>
        <mxCell id="hsxcJT8kGqhv8yepH4sB-226" value="(2) load in memory from s3" style="text;html=1;align=center;verticalAlign=middle;resizable=0;points=[];autosize=1;strokeColor=none;" vertex="1" parent="1">
          <mxGeometry x="563" y="870" width="160" height="20" as="geometry" />
        </mxCell>
        <mxCell id="hsxcJT8kGqhv8yepH4sB-227" value="(3) write to redis" style="text;html=1;align=center;verticalAlign=middle;resizable=0;points=[];autosize=1;strokeColor=none;" vertex="1" parent="1">
          <mxGeometry x="453" y="800" width="100" height="20" as="geometry" />
        </mxCell>
        <mxCell id="hsxcJT8kGqhv8yepH4sB-228" style="edgeStyle=orthogonalEdgeStyle;rounded=0;orthogonalLoop=1;jettySize=auto;html=1;entryX=-0.029;entryY=0.5;entryDx=0;entryDy=0;entryPerimeter=0;" edge="1" parent="1" source="hsxcJT8kGqhv8yepH4sB-229">
          <mxGeometry relative="1" as="geometry">
            <mxPoint x="200.9699999999998" y="590" as="targetPoint" />
            <Array as="points">
              <mxPoint x="-27" y="590" />
            </Array>
          </mxGeometry>
        </mxCell>
        <mxCell id="hsxcJT8kGqhv8yepH4sB-229" value="Worker" style="swimlane;" vertex="1" parent="1">
          <mxGeometry x="-97" y="690" width="140" height="95" as="geometry" />
        </mxCell>
        <mxCell id="hsxcJT8kGqhv8yepH4sB-230" value="Copy to Standard file&lt;br&gt;" style="text;html=1;align=center;verticalAlign=middle;resizable=0;points=[];autosize=1;strokeColor=none;" vertex="1" parent="hsxcJT8kGqhv8yepH4sB-229">
          <mxGeometry x="10" y="45" width="130" height="20" as="geometry" />
        </mxCell>
        <mxCell id="hsxcJT8kGqhv8yepH4sB-231" value="Create Cluster" style="text;html=1;align=center;verticalAlign=middle;resizable=0;points=[];autosize=1;strokeColor=none;" vertex="1" parent="1">
          <mxGeometry x="273" y="800" width="90" height="20" as="geometry" />
        </mxCell>
        <mxCell id="hsxcJT8kGqhv8yepH4sB-232" style="edgeStyle=orthogonalEdgeStyle;rounded=0;orthogonalLoop=1;jettySize=auto;html=1;" edge="1" parent="1" source="hsxcJT8kGqhv8yepH4sB-233">
          <mxGeometry relative="1" as="geometry">
            <mxPoint x="203" y="745" as="targetPoint" />
          </mxGeometry>
        </mxCell>
        <mxCell id="hsxcJT8kGqhv8yepH4sB-233" value="Amazon SQS" style="outlineConnect=0;fontColor=#232F3E;gradientColor=none;strokeColor=#ffffff;fillColor=#232F3E;dashed=0;verticalLabelPosition=middle;verticalAlign=bottom;align=center;html=1;whiteSpace=wrap;fontSize=10;fontStyle=1;spacing=3;shape=mxgraph.aws4.productIcon;prIcon=mxgraph.aws4.sqs;" vertex="1" parent="1">
          <mxGeometry x="88" y="695" width="80" height="100" as="geometry" />
        </mxCell>
        <mxCell id="hsxcJT8kGqhv8yepH4sB-234" style="edgeStyle=orthogonalEdgeStyle;rounded=0;orthogonalLoop=1;jettySize=auto;html=1;" edge="1" parent="1" source="hsxcJT8kGqhv8yepH4sB-230" target="hsxcJT8kGqhv8yepH4sB-233">
          <mxGeometry relative="1" as="geometry" />
        </mxCell>
        <mxCell id="hsxcJT8kGqhv8yepH4sB-235" value="Mongo" style="shape=cylinder3;whiteSpace=wrap;html=1;boundedLbl=1;backgroundOutline=1;size=15;" vertex="1" parent="1">
          <mxGeometry x="213" y="560" width="60" height="80" as="geometry" />
        </mxCell>
        <mxCell id="hsxcJT8kGqhv8yepH4sB-236" value="copy 10 rows, update status" style="text;html=1;align=center;verticalAlign=middle;resizable=0;points=[];autosize=1;strokeColor=none;" vertex="1" parent="1">
          <mxGeometry x="-7" y="590" width="160" height="20" as="geometry" />
        </mxCell>
        <mxCell id="hsxcJT8kGqhv8yepH4sB-237" value="update status of file" style="text;html=1;align=center;verticalAlign=middle;resizable=0;points=[];autosize=1;strokeColor=none;" vertex="1" parent="1">
          <mxGeometry x="403" y="570" width="120" height="20" as="geometry" />
        </mxCell>
        <mxCell id="hsxcJT8kGqhv8yepH4sB-238" style="edgeStyle=orthogonalEdgeStyle;rounded=0;orthogonalLoop=1;jettySize=auto;html=1;" edge="1" parent="1" source="hsxcJT8kGqhv8yepH4sB-224">
          <mxGeometry relative="1" as="geometry">
            <mxPoint x="710" y="745" as="targetPoint" />
          </mxGeometry>
        </mxCell>
        <mxCell id="hsxcJT8kGqhv8yepH4sB-239" value="System call to Java program with confirurable memory" style="rounded=0;whiteSpace=wrap;html=1;fillColor=#fff2cc;strokeColor=#d6b656;" vertex="1" parent="1">
          <mxGeometry x="710" y="730" width="120" height="60" as="geometry" />
        </mxCell>
        <mxCell id="hsxcJT8kGqhv8yepH4sB-274" style="edgeStyle=orthogonalEdgeStyle;rounded=0;orthogonalLoop=1;jettySize=auto;html=1;" edge="1" parent="1" source="hsxcJT8kGqhv8yepH4sB-276" target="hsxcJT8kGqhv8yepH4sB-308">
          <mxGeometry relative="1" as="geometry">
            <mxPoint x="486.5" y="1840" as="targetPoint" />
          </mxGeometry>
        </mxCell>
        <mxCell id="hsxcJT8kGqhv8yepH4sB-275" value="(1)" style="edgeLabel;html=1;align=center;verticalAlign=middle;resizable=0;points=[];" vertex="1" connectable="0" parent="hsxcJT8kGqhv8yepH4sB-274">
          <mxGeometry x="-0.3" y="4" relative="1" as="geometry">
            <mxPoint as="offset" />
          </mxGeometry>
        </mxCell>
        <mxCell id="hsxcJT8kGqhv8yepH4sB-276" value="Amazon SQS" style="outlineConnect=0;fontColor=#232F3E;gradientColor=none;strokeColor=#ffffff;fillColor=#232F3E;dashed=0;verticalLabelPosition=middle;verticalAlign=bottom;align=center;html=1;whiteSpace=wrap;fontSize=10;fontStyle=1;spacing=3;shape=mxgraph.aws4.productIcon;prIcon=mxgraph.aws4.sqs;" vertex="1" parent="1">
          <mxGeometry x="346.5" y="1790" width="80" height="100" as="geometry" />
        </mxCell>
        <mxCell id="hsxcJT8kGqhv8yepH4sB-277" value="" style="outlineConnect=0;dashed=0;verticalLabelPosition=bottom;verticalAlign=top;align=center;html=1;shape=mxgraph.aws3.s3;fillColor=#E05243;gradientColor=none;" vertex="1" parent="1">
          <mxGeometry x="-111.75" y="2020" width="76.5" height="93" as="geometry" />
        </mxCell>
        <mxCell id="hsxcJT8kGqhv8yepH4sB-278" style="edgeStyle=orthogonalEdgeStyle;rounded=0;orthogonalLoop=1;jettySize=auto;html=1;entryX=0;entryY=0.5;entryDx=0;entryDy=0;" edge="1" parent="1" source="hsxcJT8kGqhv8yepH4sB-279" target="hsxcJT8kGqhv8yepH4sB-299">
          <mxGeometry relative="1" as="geometry">
            <Array as="points">
              <mxPoint x="-168.5" y="1838" />
            </Array>
          </mxGeometry>
        </mxCell>
        <mxCell id="hsxcJT8kGqhv8yepH4sB-279" value="Amazon SQS" style="outlineConnect=0;fontColor=#232F3E;gradientColor=none;strokeColor=#ffffff;fillColor=#232F3E;dashed=0;verticalLabelPosition=middle;verticalAlign=bottom;align=center;html=1;whiteSpace=wrap;fontSize=10;fontStyle=1;spacing=3;shape=mxgraph.aws4.productIcon;prIcon=mxgraph.aws4.sqs;" vertex="1" parent="1">
          <mxGeometry x="-273.5" y="1790" width="80" height="100" as="geometry" />
        </mxCell>
        <mxCell id="hsxcJT8kGqhv8yepH4sB-280" style="edgeStyle=orthogonalEdgeStyle;rounded=0;orthogonalLoop=1;jettySize=auto;html=1;exitX=0.5;exitY=1;exitDx=0;exitDy=0;" edge="1" parent="1" source="hsxcJT8kGqhv8yepH4sB-299" target="hsxcJT8kGqhv8yepH4sB-277">
          <mxGeometry relative="1" as="geometry" />
        </mxCell>
        <mxCell id="hsxcJT8kGqhv8yepH4sB-281" style="edgeStyle=orthogonalEdgeStyle;rounded=0;orthogonalLoop=1;jettySize=auto;html=1;" edge="1" parent="1" source="hsxcJT8kGqhv8yepH4sB-283" target="hsxcJT8kGqhv8yepH4sB-276">
          <mxGeometry relative="1" as="geometry">
            <mxPoint x="336.5" y="1840" as="targetPoint" />
          </mxGeometry>
        </mxCell>
        <mxCell id="hsxcJT8kGqhv8yepH4sB-282" style="edgeStyle=orthogonalEdgeStyle;rounded=0;orthogonalLoop=1;jettySize=auto;html=1;exitX=0.75;exitY=1;exitDx=0;exitDy=0;" edge="1" parent="1" source="hsxcJT8kGqhv8yepH4sB-283" target="hsxcJT8kGqhv8yepH4sB-295">
          <mxGeometry relative="1" as="geometry">
            <Array as="points">
              <mxPoint x="261.5" y="1924" />
              <mxPoint x="336.5" y="1924" />
            </Array>
          </mxGeometry>
        </mxCell>
        <mxCell id="hsxcJT8kGqhv8yepH4sB-283" value="Worker" style="swimlane;" vertex="1" parent="1">
          <mxGeometry x="156.5" y="1792.5" width="140" height="95" as="geometry" />
        </mxCell>
        <mxCell id="hsxcJT8kGqhv8yepH4sB-284" value="create Cache cluster &lt;br&gt;&amp;amp; wait till its booted" style="text;html=1;align=center;verticalAlign=middle;resizable=0;points=[];autosize=1;strokeColor=none;" vertex="1" parent="hsxcJT8kGqhv8yepH4sB-283">
          <mxGeometry x="10" y="47.5" width="130" height="30" as="geometry" />
        </mxCell>
        <mxCell id="hsxcJT8kGqhv8yepH4sB-285" style="edgeStyle=orthogonalEdgeStyle;rounded=0;orthogonalLoop=1;jettySize=auto;html=1;exitX=0.5;exitY=0.5;exitDx=0;exitDy=0;exitPerimeter=0;" edge="1" parent="1" source="hsxcJT8kGqhv8yepH4sB-286" target="hsxcJT8kGqhv8yepH4sB-289">
          <mxGeometry relative="1" as="geometry" />
        </mxCell>
        <mxCell id="hsxcJT8kGqhv8yepH4sB-286" value="Actor" style="shape=umlActor;verticalLabelPosition=bottom;verticalAlign=top;html=1;outlineConnect=0;" vertex="1" parent="1">
          <mxGeometry x="-446.5" y="1810" width="30" height="60" as="geometry" />
        </mxCell>
        <mxCell id="hsxcJT8kGqhv8yepH4sB-287" value="Upload File" style="text;html=1;align=center;verticalAlign=middle;resizable=0;points=[];autosize=1;strokeColor=none;" vertex="1" parent="1">
          <mxGeometry x="-433.5" y="1840" width="80" height="20" as="geometry" />
        </mxCell>
        <mxCell id="hsxcJT8kGqhv8yepH4sB-288" style="edgeStyle=orthogonalEdgeStyle;rounded=0;orthogonalLoop=1;jettySize=auto;html=1;" edge="1" parent="1" source="hsxcJT8kGqhv8yepH4sB-289" target="hsxcJT8kGqhv8yepH4sB-279">
          <mxGeometry relative="1" as="geometry" />
        </mxCell>
        <mxCell id="hsxcJT8kGqhv8yepH4sB-289" value="Api" style="rounded=1;whiteSpace=wrap;html=1;" vertex="1" parent="1">
          <mxGeometry x="-353.5" y="1810" width="50" height="60" as="geometry" />
        </mxCell>
        <mxCell id="hsxcJT8kGqhv8yepH4sB-290" style="edgeStyle=orthogonalEdgeStyle;rounded=0;orthogonalLoop=1;jettySize=auto;html=1;" edge="1" parent="1" target="hsxcJT8kGqhv8yepH4sB-277">
          <mxGeometry relative="1" as="geometry">
            <Array as="points">
              <mxPoint x="556.5" y="2067" />
            </Array>
            <mxPoint x="556.5" y="1880" as="sourcePoint" />
          </mxGeometry>
        </mxCell>
        <mxCell id="hsxcJT8kGqhv8yepH4sB-291" style="edgeStyle=orthogonalEdgeStyle;rounded=0;orthogonalLoop=1;jettySize=auto;html=1;entryX=1;entryY=0.5;entryDx=0;entryDy=0;entryPerimeter=0;" edge="1" parent="1" source="hsxcJT8kGqhv8yepH4sB-315" target="hsxcJT8kGqhv8yepH4sB-305">
          <mxGeometry relative="1" as="geometry">
            <Array as="points">
              <mxPoint x="910" y="1700" />
            </Array>
            <mxPoint x="556.5" y="1800" as="sourcePoint" />
          </mxGeometry>
        </mxCell>
        <mxCell id="hsxcJT8kGqhv8yepH4sB-292" style="edgeStyle=orthogonalEdgeStyle;rounded=0;orthogonalLoop=1;jettySize=auto;html=1;" edge="1" parent="1" source="hsxcJT8kGqhv8yepH4sB-315" target="hsxcJT8kGqhv8yepH4sB-295">
          <mxGeometry relative="1" as="geometry">
            <mxPoint x="760" y="1890" as="sourcePoint" />
            <Array as="points">
              <mxPoint x="900" y="1920" />
              <mxPoint x="366" y="1920" />
            </Array>
          </mxGeometry>
        </mxCell>
        <mxCell id="hsxcJT8kGqhv8yepH4sB-295" value="" style="outlineConnect=0;fontColor=#232F3E;gradientColor=none;fillColor=#3334B9;strokeColor=none;dashed=0;verticalLabelPosition=bottom;verticalAlign=top;align=center;html=1;fontSize=12;fontStyle=0;aspect=fixed;pointerEvents=1;shape=mxgraph.aws4.elasticache_for_redis;" vertex="1" parent="1">
          <mxGeometry x="326.5" y="1960" width="78" height="69" as="geometry" />
        </mxCell>
        <mxCell id="hsxcJT8kGqhv8yepH4sB-296" value="(2) load in memory from s3" style="text;html=1;align=center;verticalAlign=middle;resizable=0;points=[];autosize=1;strokeColor=none;" vertex="1" parent="1">
          <mxGeometry x="390" y="2070" width="160" height="20" as="geometry" />
        </mxCell>
        <mxCell id="hsxcJT8kGqhv8yepH4sB-297" value="(3) write to redis" style="text;html=1;align=center;verticalAlign=middle;resizable=0;points=[];autosize=1;strokeColor=none;" vertex="1" parent="1">
          <mxGeometry x="820" y="1900" width="100" height="20" as="geometry" />
        </mxCell>
        <mxCell id="hsxcJT8kGqhv8yepH4sB-298" style="edgeStyle=orthogonalEdgeStyle;rounded=0;orthogonalLoop=1;jettySize=auto;html=1;entryX=-0.029;entryY=0.5;entryDx=0;entryDy=0;entryPerimeter=0;" edge="1" parent="1" source="hsxcJT8kGqhv8yepH4sB-299">
          <mxGeometry relative="1" as="geometry">
            <mxPoint x="154.4699999999998" y="1690" as="targetPoint" />
            <Array as="points">
              <mxPoint x="-73.5" y="1690" />
            </Array>
          </mxGeometry>
        </mxCell>
        <mxCell id="hsxcJT8kGqhv8yepH4sB-299" value="Worker" style="swimlane;" vertex="1" parent="1">
          <mxGeometry x="-143.5" y="1790" width="140" height="95" as="geometry" />
        </mxCell>
        <mxCell id="hsxcJT8kGqhv8yepH4sB-300" value="Copy to Standard file&lt;br&gt;" style="text;html=1;align=center;verticalAlign=middle;resizable=0;points=[];autosize=1;strokeColor=none;" vertex="1" parent="hsxcJT8kGqhv8yepH4sB-299">
          <mxGeometry x="10" y="45" width="130" height="20" as="geometry" />
        </mxCell>
        <mxCell id="hsxcJT8kGqhv8yepH4sB-301" value="Create Cluster" style="text;html=1;align=center;verticalAlign=middle;resizable=0;points=[];autosize=1;strokeColor=none;" vertex="1" parent="1">
          <mxGeometry x="226.5" y="1900" width="90" height="20" as="geometry" />
        </mxCell>
        <mxCell id="hsxcJT8kGqhv8yepH4sB-302" style="edgeStyle=orthogonalEdgeStyle;rounded=0;orthogonalLoop=1;jettySize=auto;html=1;" edge="1" parent="1" source="hsxcJT8kGqhv8yepH4sB-303">
          <mxGeometry relative="1" as="geometry">
            <mxPoint x="156.5" y="1845" as="targetPoint" />
          </mxGeometry>
        </mxCell>
        <mxCell id="hsxcJT8kGqhv8yepH4sB-303" value="Amazon SQS" style="outlineConnect=0;fontColor=#232F3E;gradientColor=none;strokeColor=#ffffff;fillColor=#232F3E;dashed=0;verticalLabelPosition=middle;verticalAlign=bottom;align=center;html=1;whiteSpace=wrap;fontSize=10;fontStyle=1;spacing=3;shape=mxgraph.aws4.productIcon;prIcon=mxgraph.aws4.sqs;" vertex="1" parent="1">
          <mxGeometry x="41.5" y="1795" width="80" height="100" as="geometry" />
        </mxCell>
        <mxCell id="hsxcJT8kGqhv8yepH4sB-304" style="edgeStyle=orthogonalEdgeStyle;rounded=0;orthogonalLoop=1;jettySize=auto;html=1;" edge="1" parent="1" source="hsxcJT8kGqhv8yepH4sB-300" target="hsxcJT8kGqhv8yepH4sB-303">
          <mxGeometry relative="1" as="geometry" />
        </mxCell>
        <mxCell id="hsxcJT8kGqhv8yepH4sB-305" value="Mongo" style="shape=cylinder3;whiteSpace=wrap;html=1;boundedLbl=1;backgroundOutline=1;size=15;" vertex="1" parent="1">
          <mxGeometry x="166.5" y="1660" width="60" height="80" as="geometry" />
        </mxCell>
        <mxCell id="hsxcJT8kGqhv8yepH4sB-306" value="copy 10 rows, update status" style="text;html=1;align=center;verticalAlign=middle;resizable=0;points=[];autosize=1;strokeColor=none;" vertex="1" parent="1">
          <mxGeometry x="-53.5" y="1690" width="160" height="20" as="geometry" />
        </mxCell>
        <mxCell id="hsxcJT8kGqhv8yepH4sB-307" value="(4) update status of file" style="text;html=1;align=center;verticalAlign=middle;resizable=0;points=[];autosize=1;strokeColor=none;" vertex="1" parent="1">
          <mxGeometry x="346.5" y="1670" width="140" height="20" as="geometry" />
        </mxCell>
        <mxCell id="hsxcJT8kGqhv8yepH4sB-310" style="edgeStyle=orthogonalEdgeStyle;rounded=0;orthogonalLoop=1;jettySize=auto;html=1;entryX=0.5;entryY=0;entryDx=0;entryDy=0;entryPerimeter=0;" edge="1" parent="1" source="hsxcJT8kGqhv8yepH4sB-308" target="hsxcJT8kGqhv8yepH4sB-309">
          <mxGeometry relative="1" as="geometry" />
        </mxCell>
        <mxCell id="hsxcJT8kGqhv8yepH4sB-313" style="edgeStyle=orthogonalEdgeStyle;rounded=0;orthogonalLoop=1;jettySize=auto;html=1;" edge="1" parent="1" source="hsxcJT8kGqhv8yepH4sB-308" target="hsxcJT8kGqhv8yepH4sB-312">
          <mxGeometry relative="1" as="geometry">
            <Array as="points">
              <mxPoint x="650" y="1820" />
              <mxPoint x="650" y="1820" />
            </Array>
          </mxGeometry>
        </mxCell>
        <mxCell id="hsxcJT8kGqhv8yepH4sB-308" value="" style="outlineConnect=0;fontColor=#232F3E;gradientColor=none;fillColor=#D05C17;strokeColor=none;dashed=0;verticalLabelPosition=bottom;verticalAlign=top;align=center;html=1;fontSize=12;fontStyle=0;aspect=fixed;pointerEvents=1;shape=mxgraph.aws4.lambda_function;" vertex="1" parent="1">
          <mxGeometry x="523" y="1801" width="78" height="78" as="geometry" />
        </mxCell>
        <mxCell id="hsxcJT8kGqhv8yepH4sB-317" style="edgeStyle=orthogonalEdgeStyle;rounded=0;orthogonalLoop=1;jettySize=auto;html=1;" edge="1" parent="1" source="hsxcJT8kGqhv8yepH4sB-309" target="hsxcJT8kGqhv8yepH4sB-315">
          <mxGeometry relative="1" as="geometry" />
        </mxCell>
        <mxCell id="hsxcJT8kGqhv8yepH4sB-309" value="" style="outlineConnect=0;dashed=0;verticalLabelPosition=bottom;verticalAlign=top;align=center;html=1;shape=mxgraph.aws3.s3;fillColor=#E05243;gradientColor=none;" vertex="1" parent="1">
          <mxGeometry x="620" y="2010" width="76.5" height="93" as="geometry" />
        </mxCell>
        <mxCell id="hsxcJT8kGqhv8yepH4sB-311" value="(3) Store smaller chunks in s3" style="text;html=1;align=center;verticalAlign=middle;resizable=0;points=[];autosize=1;strokeColor=none;" vertex="1" parent="1">
          <mxGeometry x="575" y="1950" width="170" height="20" as="geometry" />
        </mxCell>
        <mxCell id="hsxcJT8kGqhv8yepH4sB-316" style="edgeStyle=orthogonalEdgeStyle;rounded=0;orthogonalLoop=1;jettySize=auto;html=1;" edge="1" parent="1" source="hsxcJT8kGqhv8yepH4sB-312" target="hsxcJT8kGqhv8yepH4sB-315">
          <mxGeometry relative="1" as="geometry" />
        </mxCell>
        <mxCell id="hsxcJT8kGqhv8yepH4sB-318" value="(1)" style="edgeLabel;html=1;align=center;verticalAlign=middle;resizable=0;points=[];" vertex="1" connectable="0" parent="hsxcJT8kGqhv8yepH4sB-316">
          <mxGeometry x="0.05" y="3" relative="1" as="geometry">
            <mxPoint y="1" as="offset" />
          </mxGeometry>
        </mxCell>
        <mxCell id="hsxcJT8kGqhv8yepH4sB-312" value="Amazon SQS" style="outlineConnect=0;fontColor=#232F3E;gradientColor=none;strokeColor=#ffffff;fillColor=#232F3E;dashed=0;verticalLabelPosition=middle;verticalAlign=bottom;align=center;html=1;whiteSpace=wrap;fontSize=10;fontStyle=1;spacing=3;shape=mxgraph.aws4.productIcon;prIcon=mxgraph.aws4.sqs;" vertex="1" parent="1">
          <mxGeometry x="720" y="1787.5" width="80" height="100" as="geometry" />
        </mxCell>
        <mxCell id="hsxcJT8kGqhv8yepH4sB-314" value="(4) send data to SQS" style="text;html=1;align=center;verticalAlign=middle;resizable=0;points=[];autosize=1;strokeColor=none;" vertex="1" parent="1">
          <mxGeometry x="595" y="1800" width="130" height="20" as="geometry" />
        </mxCell>
        <mxCell id="hsxcJT8kGqhv8yepH4sB-315" value="" style="outlineConnect=0;fontColor=#232F3E;gradientColor=none;fillColor=#D05C17;strokeColor=none;dashed=0;verticalLabelPosition=bottom;verticalAlign=top;align=center;html=1;fontSize=12;fontStyle=0;aspect=fixed;pointerEvents=1;shape=mxgraph.aws4.lambda_function;" vertex="1" parent="1">
          <mxGeometry x="880" y="1798.5" width="78" height="78" as="geometry" />
        </mxCell>
        <mxCell id="hsxcJT8kGqhv8yepH4sB-319" value="(2) load in memory" style="text;html=1;align=center;verticalAlign=middle;resizable=0;points=[];autosize=1;strokeColor=none;" vertex="1" parent="1">
          <mxGeometry x="810" y="2040" width="120" height="20" as="geometry" />
        </mxCell>
      </root>
    </mxGraphModel>
  </diagram>
</mxfile>
